<?xml version="1.0" encoding="UTF-8" standalone="no"?>
<!-- Created with Inkscape (http://www.inkscape.org/) -->

<svg
   version="1.1"
   id="svg2"
   width="124.32"
   height="44.026669"
   viewBox="0 0 124.32 44.026669"
   sodipodi:docname="VTB_logo-white_ru_rgb.eps"
   xmlns:inkscape="http://www.inkscape.org/namespaces/inkscape"
   xmlns:sodipodi="http://sodipodi.sourceforge.net/DTD/sodipodi-0.dtd"
   xmlns="http://www.w3.org/2000/svg"
   xmlns:svg="http://www.w3.org/2000/svg">
  <defs
     id="defs6" />
  <sodipodi:namedview
     id="namedview4"
     pagecolor="#ffffff"
     bordercolor="#000000"
     borderopacity="0.25"
     inkscape:showpageshadow="2"
     inkscape:pageopacity="0.0"
     inkscape:pagecheckerboard="0"
     inkscape:deskcolor="#d1d1d1" />
  <g
     id="g8"
     inkscape:groupmode="layer"
     inkscape:label="ink_ext_XXXXXX"
     transform="matrix(1.3333333,0,0,-1.3333333,0,44.026667)">
    <g
       id="g10"
       transform="scale(0.1)">
      <path
         d="m 488.609,154.953 c 10.516,10.055 16.914,25.141 16.914,42.969 0,33.363 -20.113,54.391 -50.738,62.617 -10.512,2.746 -22.394,3.66 -39.765,3.66 H 330.457 V 0 h 95.531 c 18.742,0 28.797,0.914063 38.399,3.65625 31.539,8.22655 50.734,34.28125 50.734,70.39065 0,21.9414 -6.855,38.8551 -22.398,51.6521 -5.028,4.114 -14.625,10.516 -24.68,14.168 v 0.918 c 9.598,4.113 15.996,9.598 20.566,14.168 z m -70.39,-42.051 c 16.457,0 26.054,-2.285 33.824,-11.886 4.57,-5.9418 6.855,-14.1683 6.855,-22.8558 0,-11.4258 -3.199,-20.1094 -10.511,-26.9649 -7.313,-6.8594 -17.371,-7.7734 -28.34,-7.7734 H 383.48 v 69.4801 z m -35.196,107.871 h 27.883 c 10.055,0 15.082,-0.457 20.11,-1.828 11.886,-3.656 20.113,-11.425 20.113,-29.254 0,-15.082 -7.77,-26.054 -20.113,-29.711 -4.571,-1.371 -9.141,-1.371 -18.282,-1.371 H 383.023 Z M 647.68,0 v 219.859 h 67.648 l 15.082,44.34 H 518.32 v -44.34 h 76.336 V 0 Z m 184.664,0 c 35.195,0 52.562,3.19922 69.019,14.6289 14.168,10.0547 31.082,29.707 31.082,65.3594 0,36.1137 -16.457,54.3947 -26.054,62.6247 -12.34,10.512 -30.168,18.739 -64.45,18.739 h -42.507 v 58.507 h 104.214 l 15.086,44.34 H 746.867 V 0 Z m -32.91,117.93 h 39.308 c 12.344,0 19.656,-2.285 25.141,-6.399 9.14,-6.859 13.711,-16.4568 13.711,-30.1677 0,-13.7149 -4.571,-21.0274 -7.77,-25.1406 -6.398,-8.2305 -15.543,-11.8868 -30.625,-11.8868 H 799.434 Z M 238.16,198.148 H 16.0273 L 0,154.113 h 222.133 z m 24.008,66.051 H 40.0313 L 24.0039,220.164 H 246.141 Z m 8.02,22.016 H 48.0547 l 16.0234,44.031 H 286.215 l -16.027,-44.031"
         style="fill:#ffffff;fill-opacity:1;fill-rule:nonzero;stroke:none"
         id="path12" />
    </g>
  </g>
</svg>
